<svg xmlns="http://www.w3.org/2000/svg" xmlns:xlink="http://www.w3.org/1999/xlink" width="204.501" height="230" viewBox="0 0 204.501 230">
  <defs>
    <filter id="Trazado_40704" x="2.347" y="4.278" width="202.154" height="225.407" filterUnits="userSpaceOnUse">
      <feOffset dy="3" input="SourceAlpha"/>
      <feGaussianBlur stdDeviation="3" result="blur"/>
      <feFlood flood-opacity="0.161"/>
      <feComposite operator="in" in2="blur"/>
      <feComposite in="SourceGraphic"/>
    </filter>
  </defs>
  <g id="Grupo_137" data-name="Grupo 137" transform="translate(-2603 -365)">
    <g id="Grupo_136" data-name="Grupo 136" transform="translate(-6311.118 -3027.196)" opacity="0.44">
      <g transform="matrix(1, 0, 0, 1, 8914.12, 3392.2)" filter="url(#Trazado_40704)">
        <path id="Trazado_40704-2" data-name="Trazado 40704" d="M2582.733-1274.975l-38.37-38.559a10.482,10.482,0,0,0-7.259-3.2H2521.26a10.774,10.774,0,0,0-3.016-7.059l-39.895-39.8a13.794,13.794,0,0,0-8.607-3.971,4.3,4.3,0,0,0-.53-.009c-.232-.011-.475.013-.719.013h-15.688c-.244,0-.475,0-.719.012a3.922,3.922,0,0,0-.519.039,13.851,13.851,0,0,0-8.618,4.019l-37.3,37.462c-.089.089-.188.451-.266.451h36.4l26.715-26.879a2.136,2.136,0,0,1,3.028-.083l36.271,36.24-36.271,36.251a2.134,2.134,0,0,1-3.028-.039l-26.681-26.709h-36.4c.066,0,.155.194.232.283l37.3,37.3a.034.034,0,0,0,.011.03,13.881,13.881,0,0,0,9.844,4.069c-.244,0-.475.013-.708.024a4.143,4.143,0,0,0-.53.034,13.869,13.869,0,0,0-8.618,4.033l-37.3,37.049c-.089.088-.166.038-.254.038h36.415l26.7-26.454a2.125,2.125,0,0,1,3.016.119l36.282,36.342-36.282,36.3a2.126,2.126,0,0,1-3.016.141l-26.7-26.562h-36.426a.435.435,0,0,1,.266.161l37.3,37.224.011-.286a13.589,13.589,0,0,0,9.844,3.779h15.7a13.789,13.789,0,0,0,9.855-3.822l39.884-39.824a9.149,9.149,0,0,0,3.016-7.176H2537.1a10.231,10.231,0,0,0,7.259-2.955l38.37-38.328A13.939,13.939,0,0,0,2582.733-1274.975Zm-9.347,11.379-34.769,34.769a2.141,2.141,0,0,1-3.016,0l-34.779-34.769a2.155,2.155,0,0,1,0-3.027l34.779-34.768a2.141,2.141,0,0,1,3.016,0l34.769,34.768A2.154,2.154,0,0,1,2573.386-1263.6Z" transform="translate(-2392.81 1379.35)" fill="none" stroke="#0097da" stroke-width="3"/>
      </g>
      <circle id="Elipse_88" data-name="Elipse 88" cx="4.5" cy="4.5" r="4.5" transform="translate(8923.118 3441.196)" fill="#fff"/>
      <circle id="Elipse_89" data-name="Elipse 89" cx="4.5" cy="4.5" r="4.5" transform="translate(8959.118 3460.196)" fill="#fff"/>
      <circle id="Elipse_90" data-name="Elipse 90" cx="3" cy="3" r="3" transform="translate(8989.118 3518.196)" fill="#fff"/>
      <circle id="Elipse_91" data-name="Elipse 91" cx="2.5" cy="2.5" r="2.5" transform="translate(8926.118 3543.196)" fill="#fff"/>
      <circle id="Elipse_92" data-name="Elipse 92" cx="2.5" cy="2.5" r="2.5" transform="translate(9040.118 3556.196)" fill="#fff"/>
      <ellipse id="Elipse_93" data-name="Elipse 93" cx="3" cy="4" rx="3" ry="4" transform="translate(8964.118 3602.196)" fill="#fff"/>
      <ellipse id="Elipse_94" data-name="Elipse 94" cx="2" cy="2.5" rx="2" ry="2.5" transform="translate(9041.118 3452.196)" fill="#fff"/>
      <circle id="Elipse_95" data-name="Elipse 95" cx="3" cy="3" r="3" transform="translate(8988.118 3416.196)" fill="#fff"/>
      <circle id="Elipse_96" data-name="Elipse 96" cx="3" cy="3" r="3" transform="translate(9092.118 3503.196)" fill="#fff"/>
      <ellipse id="Elipse_97" data-name="Elipse 97" cx="3" cy="2" rx="3" ry="2" transform="translate(8961.118 3544.196)" fill="#fff"/>
      <circle id="Elipse_98" data-name="Elipse 98" cx="3" cy="3" r="3" transform="translate(9020.118 3503.196)" fill="#fff"/>
      <ellipse id="Elipse_99" data-name="Elipse 99" cx="3" cy="3.5" rx="3" ry="3.5" transform="translate(9026.118 3554.196)" fill="#fff"/>
      <circle id="Elipse_100" data-name="Elipse 100" cx="3" cy="3" r="3" transform="translate(8989.118 3591.196)" fill="#fff"/>
      <circle id="Elipse_101" data-name="Elipse 101" cx="2" cy="2" r="2" transform="translate(8993.118 3606.196)" fill="#fff"/>
      <circle id="Elipse_102" data-name="Elipse 102" cx="3" cy="3" r="3" transform="translate(8961.118 3564.196)" fill="#fff"/>
      <ellipse id="Elipse_103" data-name="Elipse 103" cx="3" cy="2.5" rx="3" ry="2.5" transform="translate(8924.118 3565.196)" fill="#fff"/>
      <circle id="Elipse_104" data-name="Elipse 104" cx="3.5" cy="3.5" r="3.5" transform="translate(8924.118 3461.196)" fill="#fff"/>
      <ellipse id="Elipse_105" data-name="Elipse 105" cx="3.5" cy="3" rx="3.5" ry="3" transform="translate(8968.118 3503.196)" fill="#fff"/>
      <ellipse id="Elipse_106" data-name="Elipse 106" cx="2" cy="3" rx="2" ry="3" transform="translate(9059.118 3554.196)" fill="#fff"/>
      <circle id="Elipse_107" data-name="Elipse 107" cx="4" cy="4" r="4" transform="translate(8987.118 3487.196)" fill="#fff"/>
      <circle id="Elipse_108" data-name="Elipse 108" cx="3.5" cy="3.5" r="3.5" transform="translate(9025.118 3451.196)" fill="#fff"/>
      <circle id="Elipse_109" data-name="Elipse 109" cx="3.5" cy="3.5" r="3.5" transform="translate(9055.118 3539.196)" fill="#fff"/>
      <ellipse id="Elipse_110" data-name="Elipse 110" cx="3.5" cy="3" rx="3.5" ry="3" transform="translate(9055.118 3466.196)" fill="#fff"/>
      <ellipse id="Elipse_28" data-name="Elipse 28" cx="0.328" cy="5.572" rx="0.328" ry="5.572" transform="translate(8929.022 3439.336) rotate(19)" fill="#fff"/>
      <ellipse id="Elipse_29" data-name="Elipse 29" cx="0.328" cy="5.572" rx="0.328" ry="5.572" transform="translate(8923.903 3440.458) rotate(-37)" fill="#fff"/>
      <ellipse id="Elipse_30" data-name="Elipse 30" cx="0.328" cy="5.572" rx="0.328" ry="5.572" transform="translate(8932.717 3442.678) rotate(72)" fill="#fff"/>
      <ellipse id="Elipse_28-2" data-name="Elipse 28" cx="0.187" cy="3.183" rx="0.187" ry="3.183" transform="translate(8964.806 3461.365) rotate(19)" fill="#fff"/>
      <ellipse id="Elipse_29-2" data-name="Elipse 29" cx="0.187" cy="3.183" rx="0.187" ry="3.183" transform="translate(8961.882 3462.006) rotate(-37)" fill="#fff"/>
      <ellipse id="Elipse_30-2" data-name="Elipse 30" cx="0.187" cy="3.183" rx="0.187" ry="3.183" transform="translate(8966.916 3463.274) rotate(72)" fill="#fff"/>
      <ellipse id="Elipse_28-3" data-name="Elipse 28" cx="0.205" cy="3.48" rx="0.205" ry="3.48" transform="translate(9096.691 3502.887) rotate(19)" fill="#fff"/>
      <ellipse id="Elipse_29-3" data-name="Elipse 29" cx="0.205" cy="3.48" rx="0.205" ry="3.48" transform="translate(9093.494 3503.588) rotate(-37)" fill="#fff"/>
      <ellipse id="Elipse_30-3" data-name="Elipse 30" cx="0.205" cy="3.48" rx="0.205" ry="3.48" transform="translate(9098.998 3504.974) rotate(72)" fill="#fff"/>
      <ellipse id="Elipse_28-4" data-name="Elipse 28" cx="0.205" cy="3.48" rx="0.205" ry="3.48" transform="translate(9043.709 3555.144) rotate(19)" fill="#fff"/>
      <ellipse id="Elipse_29-4" data-name="Elipse 29" cx="0.205" cy="3.48" rx="0.205" ry="3.48" transform="translate(9040.512 3555.845) rotate(-37)" fill="#fff"/>
      <ellipse id="Elipse_30-4" data-name="Elipse 30" cx="0.205" cy="3.48" rx="0.205" ry="3.48" transform="translate(9046.017 3557.231) rotate(72)" fill="#fff"/>
      <ellipse id="Elipse_28-5" data-name="Elipse 28" cx="0.205" cy="3.48" rx="0.205" ry="3.48" transform="translate(8964.598 3542.805) rotate(19)" fill="#fff"/>
      <ellipse id="Elipse_29-5" data-name="Elipse 29" cx="0.205" cy="3.48" rx="0.205" ry="3.48" transform="translate(8961.401 3543.506) rotate(-37)" fill="#fff"/>
      <ellipse id="Elipse_30-5" data-name="Elipse 30" cx="0.205" cy="3.48" rx="0.205" ry="3.48" transform="translate(8966.905 3544.892) rotate(72)" fill="#fff"/>
      <ellipse id="Elipse_28-6" data-name="Elipse 28" cx="0.205" cy="3.48" rx="0.205" ry="3.48" transform="translate(9029.919 3554.418) rotate(19)" fill="#fff"/>
      <ellipse id="Elipse_29-6" data-name="Elipse 29" cx="0.205" cy="3.48" rx="0.205" ry="3.48" transform="translate(9026.722 3555.119) rotate(-37)" fill="#fff"/>
      <ellipse id="Elipse_30-6" data-name="Elipse 30" cx="0.205" cy="3.48" rx="0.205" ry="3.48" transform="translate(9032.227 3556.505) rotate(72)" fill="#fff"/>
      <ellipse id="Elipse_28-7" data-name="Elipse 28" cx="0.286" cy="4.867" rx="0.286" ry="4.867" transform="translate(8967.982 3601.597) rotate(19)" fill="#fff"/>
      <ellipse id="Elipse_29-7" data-name="Elipse 29" cx="0.286" cy="4.867" rx="0.286" ry="4.867" transform="translate(8963.51 3602.578) rotate(-37)" fill="#fff"/>
      <ellipse id="Elipse_30-7" data-name="Elipse 30" cx="0.286" cy="4.867" rx="0.286" ry="4.867" transform="translate(8971.209 3604.517) rotate(72)" fill="#fff"/>
      <ellipse id="Elipse_28-8" data-name="Elipse 28" cx="0.205" cy="3.48" rx="0.205" ry="3.48" transform="translate(8928.309 3563.853) rotate(19)" fill="#fff"/>
      <ellipse id="Elipse_29-8" data-name="Elipse 29" cx="0.205" cy="3.48" rx="0.205" ry="3.48" transform="translate(8925.111 3564.554) rotate(-37)" fill="#fff"/>
      <ellipse id="Elipse_30-8" data-name="Elipse 30" cx="0.205" cy="3.48" rx="0.205" ry="3.48" transform="translate(8930.615 3565.94) rotate(72)" fill="#fff"/>
    </g>
    <rect id="Rectángulo_22" data-name="Rectángulo 22" width="192.24" height="230" transform="translate(2608 365)" fill="none"/>
  </g>
</svg>
