<svg xmlns="http://www.w3.org/2000/svg" width="64" height="64" viewBox="0 0 64 64">
  <g id="Grupo_14245" data-name="Grupo 14245" transform="translate(-3339.277 -356.33)">
    <g id="Grupo_124" data-name="Grupo 124" transform="translate(-765 490)">
      <g id="Grupo_123" data-name="Grupo 123" transform="translate(4104.277 -133.67)">
        <ellipse id="Elipse_5" data-name="Elipse 5" cx="32" cy="32" rx="32" ry="32" transform="translate(0)" fill="#0097d9"/>
        <g id="Grupo_3" data-name="Grupo 3" transform="translate(16.693 13.298)">
          <path id="Trazado_40705" data-name="Trazado 40705" d="M5982.849-1308.725l-7.642-7.679a2.088,2.088,0,0,0-1.445-.638h-3.155a2.144,2.144,0,0,0-.6-1.406l-7.944-7.925a2.747,2.747,0,0,0-1.714-.791.844.844,0,0,0-.1,0c-.046,0-.1,0-.144,0h-3.124c-.048,0-.095,0-.143,0a.788.788,0,0,0-.1.008,2.761,2.761,0,0,0-1.717.8l-7.427,7.46c-.018.018-.038.09-.053.09h7.25l5.319-5.353a.426.426,0,0,1,.6-.017l7.222,7.217-7.222,7.219a.426.426,0,0,1-.6-.008l-5.313-5.319h-7.249c.013,0,.031.038.046.056l7.427,7.428a.006.006,0,0,0,0,.006,2.765,2.765,0,0,0,1.96.81c-.048,0-.095,0-.141,0a.807.807,0,0,0-.1.007,2.765,2.765,0,0,0-1.717.8l-7.427,7.378c-.018.018-.033.008-.051.008h7.252l5.318-5.268a.423.423,0,0,1,.6.024l7.225,7.237-7.225,7.229a.423.423,0,0,1-.6.028l-5.318-5.29h-7.253a.087.087,0,0,1,.053.032l7.427,7.413,0-.057a2.706,2.706,0,0,0,1.96.753h3.126a2.745,2.745,0,0,0,1.962-.761l7.943-7.931a1.82,1.82,0,0,0,.6-1.429h3.155a2.038,2.038,0,0,0,1.445-.589l7.642-7.633A2.776,2.776,0,0,0,5982.849-1308.725Zm-1.862,2.266-6.924,6.924a.426.426,0,0,1-.6,0l-6.926-6.924a.428.428,0,0,1,0-.6l6.926-6.924a.425.425,0,0,1,.6,0l6.924,6.924A.429.429,0,0,1,5980.987-1306.459Z" transform="translate(-5947.532 1327.166)" fill="#fff"/>
        </g>
      </g>
    </g>
  </g>
</svg>
