<svg id="Grupo_15187" data-name="Grupo 15187" xmlns="http://www.w3.org/2000/svg" width="263.409" height="86.181" viewBox="0 0 263.409 86.181">
  <path id="Trazado_40949" data-name="Trazado 40949" d="M921.243,326.223l-16.177-16.257a4.418,4.418,0,0,0-3.06-1.351h-6.68a4.544,4.544,0,0,0-1.272-2.976l-16.82-16.778a5.816,5.816,0,0,0-3.629-1.675,1.813,1.813,0,0,0-.224,0c-.1,0-.2.006-.3.006h-6.614c-.1,0-.2,0-.3,0a1.657,1.657,0,0,0-.219.017,5.84,5.84,0,0,0-3.633,1.694L846.584,304.7c-.037.038-.079.19-.112.19H861.82l11.263-11.333a.9.9,0,0,1,1.276-.034L889.652,308.8,874.36,324.084a.9.9,0,0,1-1.276-.016l-11.249-11.261H846.486c.028,0,.065.081.1.119l15.726,15.727a.015.015,0,0,0,0,.013,5.852,5.852,0,0,0,4.15,1.716c-.1,0-.2.005-.3.01a1.741,1.741,0,0,0-.224.014,5.847,5.847,0,0,0-3.633,1.7l-15.726,15.62c-.037.037-.07.016-.107.016H861.83l11.259-11.154a.9.9,0,0,1,1.272.05l15.3,15.322-15.3,15.3a.9.9,0,0,1-1.272.06l-11.259-11.2H846.472a.182.182,0,0,1,.112.068l15.726,15.694,0-.121a5.729,5.729,0,0,0,4.15,1.594h6.619a5.814,5.814,0,0,0,4.155-1.612l16.816-16.79a3.857,3.857,0,0,0,1.272-3.025h6.68a4.314,4.314,0,0,0,3.06-1.246l16.177-16.16a5.877,5.877,0,0,0,0-8.306m-3.941,4.8-14.659,14.659a.9.9,0,0,1-1.272,0l-14.663-14.659a.908.908,0,0,1,0-1.276l14.663-14.659a.9.9,0,0,1,1.272,0L917.3,329.744a.908.908,0,0,1,0,1.276" transform="translate(-659.553 -287.18)" fill="#0097da"/>
  <path id="Trazado_40950" data-name="Trazado 40950" d="M446.4,361.269a4.329,4.329,0,0,1-1.211-3.239V329.945h15.465a14.55,14.55,0,0,1,6.544,1.326,10.345,10.345,0,0,1,4.379,3.924,11.02,11.02,0,0,1,1.561,5.88v9.13c0,4.006-1.041,7.113-3.121,9.178s-5.141,3.169-9.177,3.169H449.616a4.441,4.441,0,0,1-3.214-1.282m14.254-4.773a5.579,5.579,0,0,0,4.471-1.608,7.078,7.078,0,0,0,1.491-4.962v-8.571a5.466,5.466,0,0,0-1.677-4.237,6.229,6.229,0,0,0-4.472-1.582h-8.757V356.5Z" transform="translate(-445.191 -310.025)" fill="#004283"/>
  <path id="Trazado_40951" data-name="Trazado 40951" d="M536.948,362.919v-4.755a8.757,8.757,0,0,0-2.758-6.705,10.249,10.249,0,0,0-7.229-2.513h-3.727a11.211,11.211,0,0,0-5.194,1.163,8.718,8.718,0,0,0-3.554,3.259,9.253,9.253,0,0,0-1.3,4.843v6.009a8.3,8.3,0,0,0,1.3,4.542,8.173,8.173,0,0,0,3.535,2.96,11.816,11.816,0,0,0,5.212.98h3.54a13.955,13.955,0,0,0,4.024-.435,4.012,4.012,0,0,0,1.9-1.215l3.042-3.465-12.507.019a.559.559,0,0,1-.088,0,3.491,3.491,0,0,1-2.511-.924,3.2,3.2,0,0,1-.922-2.465v-1.3Zm-17.235-4.192v-.33a4.558,4.558,0,0,1,.922-3.119,3.264,3.264,0,0,1,2.6-1.209h3.773a3.2,3.2,0,0,1,2.525,1.139,4.291,4.291,0,0,1,.894,2.956v.563Z" transform="translate(-481.517 -320.175)" fill="#004283"/>
  <path id="Trazado_40952" data-name="Trazado 40952" d="M574.356,361.428l-8.524-11.482h7.08l5.124,6.894,5.124-6.894h7.08l-8.524,11.482,8.8,11.808h-7.08l-5.4-7.267-5.4,7.267h-7.08Z" transform="translate(-509.487 -320.709)" fill="#0097da"/>
  <rect id="Rect치ngulo_931" data-name="Rect치ngulo 931" width="6.521" height="23.29" transform="translate(84.311 29.236)" fill="#004283"/>
  <path id="Trazado_40953" data-name="Trazado 40953" d="M652.192,349.945h6.055v2.885a5.569,5.569,0,0,1,2.514-2.118,7.222,7.222,0,0,1,3.446-.767h3.355v5.124h-3.355a5.519,5.519,0,0,0-3.982,1.582,5.281,5.281,0,0,0-1.513,3.911v12.673h-6.521Z" transform="translate(-555.77 -320.709)" fill="#004283"/>
  <path id="Trazado_40954" data-name="Trazado 40954" d="M718.524,370.859a9.184,9.184,0,0,1-2.332-6.429V349.946h6.521v14.576a4.063,4.063,0,0,0,.772,2.564,2.545,2.545,0,0,0,2.029,1.026h2.7a4.12,4.12,0,0,0,2.885-1.352,8.811,8.811,0,0,0,1.86-3.448V349.946h6.056v23.29h-5.59v-3.124a12.012,12.012,0,0,1-2.722,2.308,5.973,5.973,0,0,1-3.094.817h-3.074a7.684,7.684,0,0,1-6.013-2.377" transform="translate(-589.958 -320.71)" fill="#004283"/>
  <path id="Trazado_40955" data-name="Trazado 40955" d="M776.824,370.558a7.354,7.354,0,0,1-2.562-5.776H780.5a2.456,2.456,0,0,0,.862,2.026,3.268,3.268,0,0,0,2.259.769h4.192c1.863,0,2.715-.469,2.715-1.493v-.791a1.083,1.083,0,0,0-.426-.862,2.532,2.532,0,0,0-1.238-.535l-8.049-1.4a8.288,8.288,0,0,1-4.483-2.027,4.86,4.86,0,0,1-1.642-3.657v-1.537a5.331,5.331,0,0,1,2.439-4.657,11.923,11.923,0,0,1,6.817-1.676h3.633a9.294,9.294,0,0,1,6.311,2.026,6.7,6.7,0,0,1,2.4,5.427h-6.242a2.551,2.551,0,0,0-.675-1.677,2.614,2.614,0,0,0-1.793-.652h-3.54c-2.019,0-2.828.649-2.828,1.581v.745a1.025,1.025,0,0,0,.3.862,2.16,2.16,0,0,0,1.091.489l8.453,1.537a8.361,8.361,0,0,1,4.326,1.98,4.625,4.625,0,0,1,1.671,3.424v1.677a5.44,5.44,0,0,1-2.545,4.683,11.417,11.417,0,0,1-6.691,1.655h-4.192a9.931,9.931,0,0,1-6.8-2.143" transform="translate(-620.979 -320.175)" fill="#004283"/>
  <path id="Trazado_40956" data-name="Trazado 40956" d="M627.321,333.324l-3.734-3.734a.741.741,0,0,1,0-1.048l3.734-3.734a.742.742,0,0,1,1.048,0l3.734,3.734a.741.741,0,0,1,0,1.048l-3.734,3.734a.741.741,0,0,1-1.048,0" transform="translate(-540.373 -307.165)" fill="#0097da"/>
  <rect id="Rect치ngulo_932" data-name="Rect치ngulo 932" width="6.521" height="23.29" transform="translate(114.589 29.236)" fill="#004283"/>
  <path id="Trazado_40957" data-name="Trazado 40957" d="M692.68,333.324l-3.734-3.734a.741.741,0,0,1,0-1.048l3.734-3.734a.741.741,0,0,1,1.048,0l3.734,3.734a.742.742,0,0,1,0,1.048l-3.734,3.734a.741.741,0,0,1-1.048,0" transform="translate(-575.287 -307.165)" fill="#004283"/>
</svg>
