<svg xmlns="http://www.w3.org/2000/svg" width="357.758" height="117.05" viewBox="0 0 357.758 117.05">
  <g id="Grupo_15187" data-name="Grupo 15187" transform="translate(0)">
    <path id="Trazado_40949" data-name="Trazado 40949" d="M948.025,340.207l-21.972-22.08a6,6,0,0,0-4.157-1.835h-9.072a6.171,6.171,0,0,0-1.727-4.043l-22.845-22.787a7.9,7.9,0,0,0-4.928-2.274,2.456,2.456,0,0,0-.3-.005c-.133-.006-.272.008-.411.008h-8.984c-.139,0-.272,0-.411.006a2.256,2.256,0,0,0-.3.023,7.931,7.931,0,0,0-4.935,2.3l-21.358,21.452c-.051.051-.108.259-.152.259h20.846l15.3-15.392a1.223,1.223,0,0,1,1.733-.047l20.77,20.752L884.349,337.3a1.222,1.222,0,0,1-1.733-.022l-15.279-15.294H846.491c.038,0,.089.111.133.161l21.358,21.36a.02.02,0,0,0,.006.017,7.948,7.948,0,0,0,5.637,2.33c-.139,0-.272.007-.4.013a2.362,2.362,0,0,0-.3.02,7.942,7.942,0,0,0-4.935,2.31l-21.358,21.215c-.051.051-.095.022-.145.022h20.852l15.291-15.149a1.216,1.216,0,0,1,1.727.068l20.776,20.81-20.776,20.787a1.217,1.217,0,0,1-1.727.081l-15.291-15.21H846.472a.248.248,0,0,1,.152.092l21.358,21.316.006-.164a7.781,7.781,0,0,0,5.637,2.164h8.99a7.9,7.9,0,0,0,5.643-2.189l22.839-22.8a5.239,5.239,0,0,0,1.727-4.109H921.9a5.859,5.859,0,0,0,4.157-1.692l21.972-21.948a7.982,7.982,0,0,0,0-11.281m-5.352,6.516-19.909,19.909a1.226,1.226,0,0,1-1.727,0L901.12,346.723a1.233,1.233,0,0,1,0-1.734l19.916-19.909a1.226,1.226,0,0,1,1.727,0l19.909,19.909a1.234,1.234,0,0,1,0,1.734" transform="translate(-592.602 -287.18)" fill="#0097da"/>
    <path id="Trazado_40950" data-name="Trazado 40950" d="M446.835,372.489a5.88,5.88,0,0,1-1.644-4.4V329.945h21a19.761,19.761,0,0,1,8.888,1.8,14.05,14.05,0,0,1,5.947,5.329,14.968,14.968,0,0,1,2.12,7.986v12.4c0,5.441-1.414,9.66-4.239,12.465s-6.982,4.3-12.464,4.3H451.2a6.032,6.032,0,0,1-4.365-1.742m19.36-6.483c2.7,0,4.682-.623,6.073-2.185s2.025-3.7,2.025-6.74V345.441a7.424,7.424,0,0,0-2.278-5.755,8.46,8.46,0,0,0-6.073-2.149H454.048v28.469Z" transform="translate(-445.191 -302.89)" fill="#004283"/>
    <path id="Trazado_40951" data-name="Trazado 40951" d="M545.457,367.925v-6.459a11.893,11.893,0,0,0-3.745-9.107c-2.448-2.278-5.77-3.414-9.819-3.414h-5.061a15.226,15.226,0,0,0-7.054,1.579,11.84,11.84,0,0,0-4.827,4.427,12.568,12.568,0,0,0-1.759,6.578v8.161a11.279,11.279,0,0,0,1.759,6.168,11.1,11.1,0,0,0,4.8,4.021,16.049,16.049,0,0,0,7.079,1.331h4.808a18.953,18.953,0,0,0,5.466-.591,5.448,5.448,0,0,0,2.581-1.65l4.131-4.706-16.987.025a.755.755,0,0,1-.12,0,4.741,4.741,0,0,1-3.41-1.254,4.35,4.35,0,0,1-1.253-3.348v-1.766Zm-23.408-5.694v-.449a6.19,6.19,0,0,1,1.253-4.236,4.433,4.433,0,0,1,3.53-1.642h5.124a4.344,4.344,0,0,1,3.429,1.547,5.828,5.828,0,0,1,1.215,4.014v.765Z" transform="translate(-470.171 -309.87)" fill="#004283"/>
    <path id="Trazado_40952" data-name="Trazado 40952" d="M577.51,365.54l-11.578-15.595h9.616l6.959,9.363,6.959-9.363h9.616L587.505,365.54l11.957,16.038h-9.616l-7.339-9.869-7.339,9.869h-9.616Z" transform="translate(-489.406 -310.237)" fill="#0097da"/>
    <rect id="Rect치ngulo_931" data-name="Rect치ngulo 931" width="8.857" height="31.632" transform="translate(114.51 39.708)" fill="#004283"/>
    <path id="Trazado_40953" data-name="Trazado 40953" d="M652.192,349.945h8.224v3.919a7.565,7.565,0,0,1,3.415-2.877,9.81,9.81,0,0,1,4.681-1.042h4.557V356.9h-4.557a7.5,7.5,0,0,0-5.408,2.149,7.172,7.172,0,0,0-2.056,5.312v17.212h-8.857Z" transform="translate(-521.233 -310.237)" fill="#004283"/>
    <path id="Trazado_40954" data-name="Trazado 40954" d="M719.36,378.349a12.474,12.474,0,0,1-3.168-8.732V349.946h8.857v19.8a5.518,5.518,0,0,0,1.048,3.482,3.456,3.456,0,0,0,2.756,1.394h3.669a5.6,5.6,0,0,0,3.918-1.837,11.969,11.969,0,0,0,2.526-4.684V349.946h8.224v31.632H739.6v-4.243a16.317,16.317,0,0,1-3.7,3.134,8.113,8.113,0,0,1-4.2,1.109h-4.175c-3.333,0-6.142-.972-8.166-3.229" transform="translate(-544.744 -310.237)" fill="#004283"/>
    <path id="Trazado_40955" data-name="Trazado 40955" d="M777.742,378.3a9.988,9.988,0,0,1-3.48-7.845h8.477a3.336,3.336,0,0,0,1.171,2.752,4.439,4.439,0,0,0,3.068,1.044h5.694c2.531,0,3.688-.636,3.688-2.028v-1.075a1.471,1.471,0,0,0-.578-1.171,3.439,3.439,0,0,0-1.682-.727l-10.932-1.9a11.257,11.257,0,0,1-6.089-2.753,6.6,6.6,0,0,1-2.23-4.966v-2.087a7.24,7.24,0,0,1,3.312-6.325c2.214-1.519,5.294-2.276,9.259-2.276h4.935c3.542,0,6.4.876,8.572,2.752a9.1,9.1,0,0,1,3.259,7.37h-8.478a3.464,3.464,0,0,0-.917-2.278,3.551,3.551,0,0,0-2.435-.886h-4.808c-2.742,0-3.841.882-3.841,2.147v1.012a1.391,1.391,0,0,0,.4,1.171,2.934,2.934,0,0,0,1.482.664l11.481,2.088a11.356,11.356,0,0,1,5.875,2.689,6.282,6.282,0,0,1,2.27,4.65V372.6a7.389,7.389,0,0,1-3.457,6.36c-2.257,1.6-5.335,2.248-9.088,2.248h-5.694c-3.839,0-6.918-.886-9.237-2.91" transform="translate(-566.076 -309.87)" fill="#004283"/>
    <path id="Trazado_40956" data-name="Trazado 40956" d="M628.736,336.452l-5.072-5.072a1.007,1.007,0,0,1,0-1.423l5.072-5.072a1.007,1.007,0,0,1,1.424,0l5.072,5.072a1.007,1.007,0,0,1,0,1.423l-5.072,5.072a1.007,1.007,0,0,1-1.424,0" transform="translate(-510.645 -300.923)" fill="#0097da"/>
    <rect id="Rect치ngulo_932" data-name="Rect치ngulo 932" width="8.857" height="31.632" transform="translate(155.632 39.708)" fill="#004283"/>
    <path id="Trazado_40957" data-name="Trazado 40957" d="M694.095,336.452l-5.072-5.072a1.007,1.007,0,0,1,0-1.423l5.072-5.072a1.007,1.007,0,0,1,1.424,0l5.072,5.072a1.007,1.007,0,0,1,0,1.423l-5.072,5.072a1.007,1.007,0,0,1-1.424,0" transform="translate(-534.655 -300.923)" fill="#004283"/>
  </g>
</svg>
