<svg xmlns="http://www.w3.org/2000/svg" xmlns:xlink="http://www.w3.org/1999/xlink" width="66.757" height="81.203" viewBox="0 0 66.757 81.203">
  <defs>
    <clipPath id="clip-path">
      <path id="Trazado_40285" data-name="Trazado 40285" d="M3559.331,4869.528l14.044-.771h.041a.589.589,0,0,1,.447.259l-14.045.771a.586.586,0,0,0-.446-.258Z" transform="translate(-3559.331 -4868.756)" fill="none"/>
    </clipPath>
    <linearGradient id="linear-gradient" x1="0.5" y1="-0.16" x2="0.5" y2="0.5" gradientUnits="objectBoundingBox">
      <stop offset="0" stop-color="#00608b"/>
      <stop offset="1" stop-color="#003046"/>
    </linearGradient>
    <clipPath id="clip-path-2">
      <path id="Trazado_40290" data-name="Trazado 40290" d="M3570.253,5350.964l-14.044.771a.54.54,0,0,0,.4-.23l14.045-.771A.542.542,0,0,1,3570.253,5350.964Z" transform="translate(-3556.208 -5350.734)" fill="none"/>
    </clipPath>
    <clipPath id="clip-path-3">
      <path id="Trazado_40292" data-name="Trazado 40292" d="M3573.9,5448.118l-14.045.771c-.067,0-.135,0-.2,0l14.044-.772C3573.76,5448.122,3573.828,5448.121,3573.9,5448.118Z" transform="translate(-3559.648 -5448.118)" fill="none"/>
    </clipPath>
    <linearGradient id="linear-gradient-2" x1="0.5" y1="-0.202" x2="0.5" y2="1" xlink:href="#linear-gradient"/>
    <linearGradient id="linear-gradient-3" y1="0.897" x2="0.626" y2="0.583" gradientUnits="objectBoundingBox">
      <stop offset="0" stop-color="#004e70"/>
      <stop offset="1" stop-color="#002738"/>
    </linearGradient>
    <clipPath id="clip-path-4">
      <path id="Trazado_40302" data-name="Trazado 40302" d="M3888.747,5195.256l14.044-.771h.039a.646.646,0,0,1,.482.287l-14.045.771a.644.644,0,0,0-.482-.288Z" transform="translate(-3888.747 -5194.484)" fill="none"/>
    </clipPath>
    <linearGradient id="linear-gradient-4" x1="0.5" y1="-0.488" x2="0.5" y2="1" xlink:href="#linear-gradient"/>
    <clipPath id="clip-path-5">
      <path id="Trazado_40307" data-name="Trazado 40307" d="M3899.666,5677.742l-14.045.771a.616.616,0,0,0,.445-.261l14.044-.771A.615.615,0,0,1,3899.666,5677.742Z" transform="translate(-3885.621 -5677.48)" fill="none"/>
    </clipPath>
    <linearGradient id="linear-gradient-5" x1="0.5" y1="0" x2="0.187" y2="1" xlink:href="#linear-gradient"/>
    <linearGradient id="linear-gradient-6" x1="-0.051" y1="-0.109" x2="0.5" y2="1" xlink:href="#linear-gradient-3"/>
    <linearGradient id="linear-gradient-7" x1="0.802" y1="0.132" x2="0.275" y2="0.217" xlink:href="#linear-gradient"/>
    <clipPath id="clip-path-6">
      <path id="Trazado_40314" data-name="Trazado 40314" d="M4227.848,5362.617l-14.045.772h0l14.044-.772Z" transform="translate(-4213.799 -5362.617)" fill="none"/>
    </clipPath>
    <clipPath id="clip-path-7">
      <path id="Trazado_40317" data-name="Trazado 40317" d="M4227.948,5362.512l-14.043.771c-.014,0-.027-.006-.041-.006l14.044-.771C4227.922,5362.506,4227.936,5362.512,4227.948,5362.512Z" transform="translate(-4213.864 -5362.505)" fill="none"/>
    </clipPath>
    <linearGradient id="linear-gradient-8" x1="0.408" y1="0.539" x2="0.312" y2="1" gradientUnits="objectBoundingBox">
      <stop offset="0" stop-color="#0097da"/>
      <stop offset="1" stop-color="#004c6d"/>
    </linearGradient>
    <linearGradient id="linear-gradient-9" x1="0.5" y1="0" x2="0.5" y2="1" xlink:href="#linear-gradient-3"/>
  </defs>
  <g id="Grupo_14246" data-name="Grupo 14246" transform="translate(-3319.545 -4424.33)">
    <path id="Trazado_40283" data-name="Trazado 40283" d="M3407.326,4888.071c.005-.012.01-.023.015-.036s.009-.024.013-.036.008-.025.012-.038.007-.025.01-.038.007-.025.01-.039v-.007c0-.006,0-.012,0-.018,0-.024.008-.048.011-.073,0-.009,0-.019,0-.028,0-.026,0-.052,0-.078,0-.006,0-.01,0-.015s0,0,0-.005c0-.032,0-.065,0-.1,0-.008,0-.017,0-.024,0-.024-.006-.05-.011-.074,0-.006,0-.011,0-.017s0-.008,0-.013c-.005-.027-.012-.055-.02-.082,0,0,0-.009,0-.013-.01-.032-.021-.062-.033-.091l-.01-.024c-.01-.022-.021-.044-.032-.066l-.014-.025a.765.765,0,0,0-.052-.08l-10.344-13.977-14.044.772,10.345,13.975a.736.736,0,0,1,.052.081l.014.024c.011.021.022.043.032.065l.01.024c.012.03.023.061.033.091a.067.067,0,0,0,0,.013c.008.029.014.056.02.083,0,.009,0,.02.006.028,0,.025.008.05.01.075,0,.008,0,.016,0,.024,0,.033,0,.065,0,.1a.187.187,0,0,1,0,.021c0,.026,0,.051,0,.076s0,.021,0,.03c0,.025-.007.049-.011.073,0,.008,0,.017,0,.025s-.006.026-.01.038-.006.026-.01.038-.008.025-.012.038-.008.025-.013.037l-.015.036-.016.035-.018.033-.018.034a.647.647,0,0,1-.046.069l14.044-.771c.017-.022.032-.045.047-.069a.035.035,0,0,1,0-.006l.015-.027.018-.035Z" transform="translate(-24.882 -421.97)" fill="#03425d"/>
    <g id="Grupo_12361" data-name="Grupo 12361" transform="translate(3357.719 4450.85)" style="isolation: isolate">
      <g id="Grupo_12360" data-name="Grupo 12360" transform="translate(0 0)" clip-path="url(#clip-path)">
        <g id="Grupo_12359" data-name="Grupo 12359" style="isolation: isolate">
          <path id="Trazado_40284" data-name="Trazado 40284" d="M3573.863,4869.015l-14.045.771a.586.586,0,0,0-.446-.258h-.041l14.044-.771h.041a.589.589,0,0,1,.447.259" transform="translate(-3559.331 -4868.756)" fill="#004f71"/>
        </g>
      </g>
    </g>
    <g id="Grupo_12362" data-name="Grupo 12362" transform="translate(3358.135 4466.215)">
      <path id="Trazado_40286" data-name="Trazado 40286" d="M3398.806,5140.589l-13.761.361,10.338-13.852,13.979-.315Z" transform="translate(-3385.046 -5126.783)" fill="url(#linear-gradient)"/>
    </g>
    <g id="Grupo_12365" data-name="Grupo 12365" transform="translate(3357.988 4479.611)" style="isolation: isolate">
      <g id="Grupo_12364" data-name="Grupo 12364" transform="translate(0 0)" clip-path="url(#clip-path-2)">
        <g id="Grupo_12363" data-name="Grupo 12363" style="isolation: isolate">
          <path id="Trazado_40287" data-name="Trazado 40287" d="M3575.392,5354.355l-14.044.771a.459.459,0,0,0,.1-.015l14.044-.771a.5.5,0,0,1-.1.016" transform="translate(-3561.348 -5354.125)" fill="#00557a"/>
          <path id="Trazado_40288" data-name="Trazado 40288" d="M3571.684,5352.416l-14.044.772a.546.546,0,0,0,.221-.123l14.044-.771a.535.535,0,0,1-.221.122" transform="translate(-3557.544 -5352.201)" fill="#00587e"/>
          <path id="Trazado_40289" data-name="Trazado 40289" d="M3570.252,5350.827l-14.044.771a.657.657,0,0,0,.085-.093l14.044-.771a.655.655,0,0,1-.085.093" transform="translate(-3555.891 -5350.734)" fill="#005b82"/>
        </g>
      </g>
    </g>
    <g id="Grupo_12368" data-name="Grupo 12368" transform="translate(3357.984 4485.422)" style="isolation: isolate">
      <g id="Grupo_12367" data-name="Grupo 12367" transform="translate(0 0)" clip-path="url(#clip-path-3)">
        <g id="Grupo_12366" data-name="Grupo 12366" style="isolation: isolate">
          <path id="Trazado_40291" data-name="Trazado 40291" d="M3573.9,5448.118l-14.045.771c-.067,0-.135,0-.2,0l14.044-.772c.068,0,.136,0,.2,0" transform="translate(-3559.648 -5448.118)" fill="#004f71"/>
        </g>
      </g>
    </g>
    <g id="Grupo_12370" data-name="Grupo 12370" transform="translate(3338.553 4429.908)">
      <path id="Trazado_40294" data-name="Trazado 40294" d="M3737.135,4537.462l-14.044.771-10.792-14.567,13.816-1.267Z" transform="translate(-3712.299 -4522.4)" fill="#03425d"/>
    </g>
    <g id="Grupo_12371" data-name="Grupo 12371" transform="translate(3338.737 4444.873)">
      <path id="Trazado_40295" data-name="Trazado 40295" d="M3726.285,4783.793l-13.986.416,10.6-13.988,13.951-.788Z" transform="translate(-3712.299 -4769.434)" fill="url(#linear-gradient-2)"/>
    </g>
    <g id="Grupo_12375" data-name="Grupo 12375" transform="translate(3338.81 4469.816)">
      <path id="Trazado_40300" data-name="Trazado 40300" d="M3732.673,5209l-14.045.771-10.8-14.607,13.8-1.529Z" transform="translate(-3707.833 -5193.635)" fill="url(#linear-gradient-3)"/>
    </g>
    <g id="Grupo_12378" data-name="Grupo 12378" transform="translate(3338.383 4470.288)" style="isolation: isolate">
      <g id="Grupo_12377" data-name="Grupo 12377" transform="translate(0)" clip-path="url(#clip-path-4)">
        <g id="Grupo_12376" data-name="Grupo 12376" style="isolation: isolate">
          <path id="Trazado_40301" data-name="Trazado 40301" d="M3903.313,5194.771l-14.045.771a.644.644,0,0,0-.482-.288h-.039l14.044-.771h.039a.646.646,0,0,1,.482.287" transform="translate(-3888.747 -5194.484)" fill="#004f71"/>
        </g>
      </g>
    </g>
    <g id="Grupo_12379" data-name="Grupo 12379" transform="translate(3338.991 4485.115)">
      <path id="Trazado_40303" data-name="Trazado 40303" d="M3719.99,5458.085l-13.924.345,10.462-14.1,14.427-.664Z" transform="translate(-3706.066 -5443.665)" fill="url(#linear-gradient-4)"/>
    </g>
    <g id="Grupo_12382" data-name="Grupo 12382" transform="translate(3338.642 4499.109)" style="isolation: isolate">
      <g id="Grupo_12381" data-name="Grupo 12381" transform="translate(0)" clip-path="url(#clip-path-5)">
        <g id="Grupo_12380" data-name="Grupo 12380" transform="translate(0)" style="isolation: isolate">
          <path id="Trazado_40304" data-name="Trazado 40304" d="M3905.478,5681.609l-14.044.771a.416.416,0,0,0,.1-.016l14.044-.771a.524.524,0,0,1-.1.016" transform="translate(-3891.434 -5681.347)" fill="#00557a"/>
          <path id="Trazado_40305" data-name="Trazado 40305" d="M3901.315,5679.414l-14.044.771a.616.616,0,0,0,.248-.138l14.045-.772a.611.611,0,0,1-.249.139" transform="translate(-3887.173 -5679.167)" fill="#00587e"/>
          <path id="Trazado_40306" data-name="Trazado 40306" d="M3899.666,5677.587l-14.045.771a.8.8,0,0,0,.1-.107l14.044-.771a.74.74,0,0,1-.1.107" transform="translate(-3885.275 -5677.48)" fill="#005b82"/>
        </g>
      </g>
    </g>
    <path id="Trazado_40308" data-name="Trazado 40308" d="M4017.683,4425.783c.03-.035.06-.069.09-.1l.056-.059c.028-.03.056-.06.084-.088l.062-.06c.028-.026.055-.053.083-.079l.05-.043.107-.092.063-.049.1-.075.068-.047c.032-.023.065-.045.1-.067l.071-.044.1-.06.073-.04.1-.053.071-.035.111-.049.068-.028c.042-.017.086-.032.129-.047l.052-.019c.061-.021.122-.038.184-.055s.1-.026.157-.037c.015,0,.029-.006.044-.009l.12-.021.047-.007c.054-.008.107-.014.161-.019l-14.044.771c-.054,0-.107.011-.161.019l-.047.007c-.04.006-.08.013-.12.021a.348.348,0,0,0-.045.009c-.051.011-.1.021-.154.036h0c-.062.017-.123.035-.184.055l-.051.018-.13.047-.067.029-.111.048c-.024.011-.048.023-.072.035l-.1.053-.072.041c-.034.019-.066.039-.1.059l-.071.044-.1.066-.068.048c-.034.024-.066.049-.1.075l-.063.049-.107.091-.043.036-.007.007-.083.079-.062.059c-.029.028-.057.059-.085.088l-.056.059c-.031.034-.06.068-.09.1l-.045.052c-.045.054-.089.108-.131.166l-10.983,14.548,14.171-.779L4017.506,4426c.043-.056.086-.111.131-.165Z" transform="translate(-672.934 -0.161)" fill="url(#linear-gradient-5)"/>
    <path id="Trazado_40310" data-name="Trazado 40310" d="M3998.919,4833.965l-11.1-15.005-14.044.771,11.1,15a3.827,3.827,0,0,0,2.914,1.689l15.14-.792C4001.833,4835.6,3999.7,4835.018,3998.919,4833.965Z" transform="translate(-654.101 -371.081)" fill="url(#linear-gradient-6)"/>
    <path id="Trazado_40311" data-name="Trazado 40311" d="M4010.773,5100.063l.09-.1.057-.059.085-.089.063-.06.083-.079.054-.046c.035-.03.069-.06.1-.087s.042-.034.063-.051l.1-.074.069-.048.1-.066.071-.044c.033-.021.067-.04.1-.06l.072-.04c.034-.019.069-.036.1-.054l.071-.035c.038-.018.075-.034.113-.05l.065-.028c.046-.019.093-.034.14-.051l.042-.015c.061-.021.122-.039.184-.055s.1-.026.156-.037l.042-.008c.041-.008.081-.015.122-.021l.046-.007c.054-.008.434-.035.487-.04l-.6,0-2.864.163-10.831.578c-.054,0-.181.058-.234.065l-.046.007-.122.021-.042.008c-.05.01-.1.021-.15.035l-.005,0c-.062.016-.124.035-.184.055l-.043.015c-.046.016-.093.033-.139.051l-.065.028c-.038.016-.076.032-.114.05s-.046.022-.07.035-.07.035-.1.054l-.072.04c-.034.019-.066.039-.1.06l-.071.044-.1.066-.069.049c-.033.023-.065.049-.1.075l-.064.049-.1.088-.045.038-.009.009-.084.079-.062.06-.084.088-.057.06c-.031.033-.061.069-.091.1-.015.018-.031.034-.046.052-.044.054-.088.109-.131.165l-10.922,14.226,14.352-.81,10.615-14.187c.043-.057.087-.112.132-.166Z" transform="translate(-665.76 -634.191)" fill="url(#linear-gradient-7)"/>
    <g id="Grupo_12387" data-name="Grupo 12387" transform="translate(3319.849 4480.32)" style="isolation: isolate">
      <g id="Grupo_12386" data-name="Grupo 12386" transform="translate(0)" clip-path="url(#clip-path-6)">
        <g id="Grupo_12385" data-name="Grupo 12385" style="isolation: isolate">
          <path id="Trazado_40313" data-name="Trazado 40313" d="M4227.848,5362.617l-14.045.772h0l14.044-.772h0" transform="translate(-4213.799 -5362.617)" fill="#004f71"/>
        </g>
      </g>
    </g>
    <g id="Grupo_12388" data-name="Grupo 12388" transform="translate(3333.651 4480.313)">
      <path id="Trazado_40315" data-name="Trazado 40315" d="M4213.58,5362.512c-.013,0-.026-.006-.041-.007l.06,0A.036.036,0,0,1,4213.58,5362.512Z" transform="translate(-4213.539 -5362.505)" fill="#008fce"/>
    </g>
    <g id="Grupo_12391" data-name="Grupo 12391" transform="translate(3319.809 4480.313)" style="isolation: isolate">
      <g id="Grupo_12390" data-name="Grupo 12390" transform="translate(0)" clip-path="url(#clip-path-7)">
        <g id="Grupo_12389" data-name="Grupo 12389" style="isolation: isolate">
          <path id="Trazado_40316" data-name="Trazado 40316" d="M4227.948,5362.512l-14.043.771c-.014,0-.027-.006-.041-.006l14.044-.771c.014,0,.028.006.04.007" transform="translate(-4213.864 -5362.505)" fill="#004f71"/>
        </g>
      </g>
    </g>
    <g id="Grupo_12392" data-name="Grupo 12392" transform="translate(3332.631 4424.33)">
      <path id="Trazado_40318" data-name="Trazado 40318" d="M3360.57,4446.39a2.939,2.939,0,0,0-2.149-1.324l-4.673-.146a5.186,5.186,0,0,0-.909-2.8l-11.87-16a3.944,3.944,0,0,0-2.917-1.648l-4.627-.144c-.073,0-.141,0-.365.008a3.585,3.585,0,0,0-2.532,1.5l-10.983,14.547,10.739.334,7.812-10.314a.572.572,0,0,1,.469-.249.55.55,0,0,1,.424.244l10.792,14.567-10.606,13.908a.527.527,0,0,1-.434.227.606.606,0,0,1-.459-.269l-7.939-10.736-10.669-.22,11.1,15a3.827,3.827,0,0,0,2.914,1.689c-.073,0-.141,0-.365.011a3.6,3.6,0,0,0-2.532,1.5l-10.923,14.227,10.682.331,7.809-10.146a.487.487,0,0,1,.408-.213.646.646,0,0,1,.482.287l10.8,14.608-10.609,13.927a.6.6,0,0,1-.484.261.518.518,0,0,1-.406-.234l-7.945-10.678-10.779-.274,11.053,14.931a4.019,4.019,0,0,0,3.055,1.645h4.649a3.442,3.442,0,0,0,2.9-1.411l11.662-15.277a4.1,4.1,0,0,0,.872-2.792l4.673.145a2.579,2.579,0,0,0,2.134-1.094l11.22-14.7a6.825,6.825,0,0,0-.05-7.738Zm8.69,19.882-10.167,13.338a.533.533,0,0,1-.443.23.583.583,0,0,1-.447-.258l-10.348-13.975a1.058,1.058,0,0,1-.008-1.189l10.169-13.339a.536.536,0,0,1,.444-.23.584.584,0,0,1,.446.257l10.345,13.976a1.055,1.055,0,0,1,.008,1.189" transform="translate(-3319.544 -4424.33)" fill="url(#linear-gradient-8)"/>
    </g>
    <path id="Trazado_40319" data-name="Trazado 40319" d="M3928.024,5510.93a3.683,3.683,0,0,1-2.914-1.576l-11.1-14.852-14.044.772,11.1,14.851a3.682,3.682,0,0,0,2.914,1.576l4.631.144,14.044-.772Z" transform="translate(-580.03 -1006.312)" fill="url(#linear-gradient-9)"/>
  </g>
</svg>
