<svg xmlns="http://www.w3.org/2000/svg" width="112" height="112" viewBox="0 0 112 112">
  <g id="Grupo_15116" data-name="Grupo 15116" transform="translate(-5421 -918)">
    <g id="pool-finished-sash" transform="translate(5421 895)">
      <path id="Trazado_41319" data-name="Trazado 41319" d="M45.255,23,112,89.745V135L0,23Z" fill="#0097da"/>
    </g>
    <g id="Grupo_15115" data-name="Grupo 15115" transform="matrix(0.695, 0.719, -0.719, 0.695, 5853.168, -152.538)">
      <path id="Trazado_41320" data-name="Trazado 41320" d="M515.771,1031.078h8.714v2h-6.419v3.127h5.8v2h-5.8v4.523h-2.295Z" transform="translate(0 -0.28)" fill="#fff"/>
      <path id="Trazado_41321" data-name="Trazado 41321" d="M542.99,1032.985a1.449,1.449,0,0,1,0-1.979,1.631,1.631,0,0,1,2.079,0,1.448,1.448,0,0,1,0,1.979,1.631,1.631,0,0,1-2.079,0Zm-.091,1.156h2.262v8.3H542.9Z" transform="translate(-16.85)" fill="#fff"/>
      <path id="Trazado_41322" data-name="Trazado 41322" d="M555.476,1039.842h2.1v1a2.674,2.674,0,0,1,.948-.823,2.468,2.468,0,0,1,1.164-.308h1a2.843,2.843,0,0,1,2.137.831,3.02,3.02,0,0,1,.807,2.2v5.4h-2.262v-5.322a1.221,1.221,0,0,0-.274-.832.894.894,0,0,0-.707-.316h-1a1.488,1.488,0,0,0-1.039.424,2.068,2.068,0,0,0-.607,1.106v4.939h-2.262Z" transform="translate(-24.938 -5.701)" fill="#fff"/>
      <path id="Trazado_41323" data-name="Trazado 41323" d="M582.7,1032.985a1.449,1.449,0,0,1,0-1.979,1.631,1.631,0,0,1,2.079,0,1.448,1.448,0,0,1,0,1.979,1.631,1.631,0,0,1-2.079,0Zm-.091,1.156h2.262v8.3H582.6Z" transform="translate(-41.789)" fill="#fff"/>
      <path id="Trazado_41324" data-name="Trazado 41324" d="M595.023,1047.475a2.648,2.648,0,0,1-.914-2.1h2.229a.922.922,0,0,0,.307.723,1.164,1.164,0,0,0,.807.275h1.5q1,0,1-.549v-.283a.4.4,0,0,0-.166-.307.929.929,0,0,0-.449-.191l-2.877-.5a2.972,2.972,0,0,1-1.6-.724,1.74,1.74,0,0,1-.59-1.3v-.549a1.907,1.907,0,0,1,.873-1.663,4.267,4.267,0,0,1,2.436-.6h1.3a3.327,3.327,0,0,1,2.254.74,2.457,2.457,0,0,1,.856,1.954h-2.228a.743.743,0,0,0-.241-.582.922.922,0,0,0-.64-.216H597.6q-1.082,0-1.081.5v.266a.393.393,0,0,0,.141.307.835.835,0,0,0,.407.174l3.027.549a2.939,2.939,0,0,1,1.53.707,1.636,1.636,0,0,1,.582,1.222v.6a1.994,1.994,0,0,1-.89,1.713,4.01,4.01,0,0,1-2.37.632h-1.5A3.561,3.561,0,0,1,595.023,1047.475Z" transform="translate(-49.203 -5.701)" fill="#fff"/>
      <path id="Trazado_41325" data-name="Trazado 41325" d="M619.73,1031.078h2.262v4.174a2.772,2.772,0,0,1,.906-.7,2.349,2.349,0,0,1,1.039-.266h1.031a2.843,2.843,0,0,1,2.137.831,3.021,3.021,0,0,1,.806,2.2v5.4H625.65V1037.4a1.223,1.223,0,0,0-.274-.832.9.9,0,0,0-.707-.316h-1.031a1.488,1.488,0,0,0-1.04.424,2.068,2.068,0,0,0-.607,1.106v4.939H619.73Z" transform="translate(-65.296 -0.28)" fill="#fff"/>
      <path id="Trazado_41326" data-name="Trazado 41326" d="M647.458,1047.882a3,3,0,0,1-1.256-1.1,2.959,2.959,0,0,1-.449-1.621v-2.146a3.3,3.3,0,0,1,.449-1.729,3.079,3.079,0,0,1,1.256-1.164,4,4,0,0,1,1.854-.415h1.33a3.61,3.61,0,0,1,2.561.9,3.116,3.116,0,0,1,.964,2.4v1.763h-6.153v.4a1.162,1.162,0,0,0,.349.881,1.317,1.317,0,0,0,.948.333h1.3a1.572,1.572,0,0,0,.939-.258.794.794,0,0,0,.358-.674h2.228a2.536,2.536,0,0,1-.449,1.48,2.871,2.871,0,0,1-1.255,1,4.632,4.632,0,0,1-1.854.349h-1.264A4.205,4.205,0,0,1,647.458,1047.882Zm4.482-4.748V1043a1.5,1.5,0,0,0-.349-1.039,1.187,1.187,0,0,0-.931-.391h-1.347a1.223,1.223,0,0,0-.964.415,1.6,1.6,0,0,0-.366,1.1v.05Z" transform="translate(-81.641 -5.701)" fill="#fff"/>
      <path id="Trazado_41327" data-name="Trazado 41327" d="M672.505,1041.954a3.176,3.176,0,0,1-.906-2.361v-1.9a3.6,3.6,0,0,1,.433-1.788,3,3,0,0,1,1.214-1.2,3.742,3.742,0,0,1,1.813-.424h.914a2.543,2.543,0,0,1,.981.208,2.408,2.408,0,0,1,.831.557v-3.975h2.262v11.641h-2.1v-1.1a2.6,2.6,0,0,1-.9.89,2.256,2.256,0,0,1-1.181.341h-.981A3.241,3.241,0,0,1,672.505,1041.954Zm3.617-1.048a1.493,1.493,0,0,0,1.139-.491,2.1,2.1,0,0,0,.524-1.305v-1.447a1.9,1.9,0,0,0-.507-1.039,1.263,1.263,0,0,0-.923-.391h-1.014a1.381,1.381,0,0,0-1.073.449,1.691,1.691,0,0,0-.407,1.181v1.563a1.543,1.543,0,0,0,.366,1.073,1.213,1.213,0,0,0,.948.408Z" transform="translate(-97.874 -0.28)" fill="#fff"/>
    </g>
  </g>
</svg>
