<svg xmlns="http://www.w3.org/2000/svg" width="56.29" height="56.29" viewBox="0 0 56.29 56.29">
  <g id="Grupo_15124" data-name="Grupo 15124" transform="translate(-5932.666 -810.665)">
    <g id="Grupo_15119" data-name="Grupo 15119" transform="translate(5942.811 820.703)">
      <g id="gifts" transform="translate(0)">
        <path id="Trazado_41335" data-name="Trazado 41335" d="M35.78,106H1.08A1.08,1.08,0,0,0,0,107.08v4.32a1.08,1.08,0,0,0,1.08,1.08h34.7a1.08,1.08,0,0,0,1.08-1.08v-4.32A1.08,1.08,0,0,0,35.78,106Z" transform="translate(0 -98.369)" fill="#004283"/>
        <path id="Trazado_41336" data-name="Trazado 41336" d="M125.364,0a4.145,4.145,0,0,0-3.014,1.154A4.4,4.4,0,0,0,121,4.321l.153,1.08h19.131l.153-1.08a4.405,4.405,0,0,0-1.35-3.164A4.021,4.021,0,0,0,136.07,0a4.3,4.3,0,0,0-3.758,2.277s-.006.006-.008.009l-1.585,2.973-1.585-2.973A4.3,4.3,0,0,0,125.364,0Z" transform="translate(-112.289 0)" fill="#0097da"/>
        <path id="Trazado_41337" data-name="Trazado 41337" d="M62.54,245.51V226H30v19.51a1.079,1.079,0,0,0,1.08,1.08H61.46A1.079,1.079,0,0,0,62.54,245.51Z" transform="translate(-27.84 -209.73)" fill="#004283"/>
      </g>
    </g>
    <g id="prohibido" transform="translate(5932.666 810.665)">
      <g id="Grupo_15123" data-name="Grupo 15123">
        <path id="Trazado_41346" data-name="Trazado 41346" d="M28.145,0A28.145,28.145,0,1,0,56.29,28.145,28.145,28.145,0,0,0,28.145,0ZM12.513,9.746A24.117,24.117,0,0,1,43.707,9.74L9.732,43.715A24.1,24.1,0,0,1,12.513,9.746Zm31.265,36.8a24.117,24.117,0,0,1-31.194.006L46.558,12.575A24.1,24.1,0,0,1,43.777,46.544Z" fill="#0097da"/>
      </g>
    </g>
  </g>
</svg>
