<svg xmlns="http://www.w3.org/2000/svg" width="55.62" height="46.5" viewBox="0 0 55.62 46.5">
  <g id="Grupo_15120" data-name="Grupo 15120" transform="translate(-5828 -963)">
    <g id="Grupo_15119" data-name="Grupo 15119" transform="translate(0.113 65.612)">
      <g id="gifts" transform="translate(5833 898.404)">
        <path id="Trazado_41335" data-name="Trazado 41335" d="M43.18,106H1.3A1.3,1.3,0,0,0,0,107.3v5.213a1.3,1.3,0,0,0,1.3,1.3H43.18a1.3,1.3,0,0,0,1.3-1.3V107.3A1.3,1.3,0,0,0,43.18,106Z" transform="translate(0 -96.791)" fill="#004283"/>
        <path id="Trazado_41336" data-name="Trazado 41336" d="M126.266.006A5,5,0,0,0,122.629,1.4,5.312,5.312,0,0,0,121,5.215l.185,1.3h23.088l.185-1.3A5.316,5.316,0,0,0,142.829,1.4,4.853,4.853,0,0,0,139.187.006a5.185,5.185,0,0,0-4.535,2.748s-.007.007-.009.011l-1.913,3.588-1.913-3.588a5.186,5.186,0,0,0-4.55-2.759Z" transform="translate(-110.487 0)" fill="#0097da"/>
        <path id="Trazado_41337" data-name="Trazado 41337" d="M69.271,249.545V226H30v23.545a1.3,1.3,0,0,0,1.3,1.3H67.967A1.3,1.3,0,0,0,69.271,249.545Z" transform="translate(-27.394 -206.365)" fill="#004283"/>
      </g>
      <g id="Grupo_15118" data-name="Grupo 15118" transform="translate(5849.421 922.734)">
        <path id="Trazado_41338" data-name="Trazado 41338" d="M550.52,1093.812a3.315,3.315,0,0,1,.353-1.593,3.53,3.53,0,0,1,.845-1.059,11.065,11.065,0,0,1,1.262-.877,6.755,6.755,0,0,0,1.283-.952,1.428,1.428,0,0,0,.406-1.037v-.77a1.312,1.312,0,0,0-.471-1.058,1.9,1.9,0,0,0-1.262-.4H551.1a1.757,1.757,0,0,0-1.369.567,2.16,2.16,0,0,0-.513,1.508h-2.951a4.843,4.843,0,0,1,.6-2.427,4.09,4.09,0,0,1,1.7-1.636,5.379,5.379,0,0,1,2.534-.577h1.839a5.649,5.649,0,0,1,2.449.5,3.9,3.9,0,0,1,1.647,1.411,3.8,3.8,0,0,1,.588,2.106v.77a3.475,3.475,0,0,1-.331,1.6,3.01,3.01,0,0,1-.791,1.005,12.827,12.827,0,0,1-1.23.834,6.24,6.24,0,0,0-1.347.973,1.744,1.744,0,0,0-.449,1.273v.3H550.52Zm.2,4.566a1.923,1.923,0,1,1,1.272.481A1.72,1.72,0,0,1,550.723,1098.377Z" transform="translate(-546.264 -1083.504)" fill="#0097da"/>
      </g>
    </g>
    <rect id="Rectángulo_1109" data-name="Rectángulo 1109" width="55.62" height="46.5" transform="translate(5828 963)" fill="none"/>
  </g>
</svg>
