<svg xmlns="http://www.w3.org/2000/svg" xmlns:xlink="http://www.w3.org/1999/xlink" width="73.96" height="73.96" viewBox="0 0 73.96 73.96">
  <defs>
    <linearGradient id="linear-gradient" x1="0.5" x2="0.168" y2="1.301" gradientUnits="objectBoundingBox">
      <stop offset="0" stop-color="#0097d9"/>
      <stop offset="1" stop-color="#004c6d"/>
    </linearGradient>
  </defs>
  <g id="Grupo_130" data-name="Grupo 130" transform="translate(-2363 -205)">
    <g id="entradas_2_" data-name="entradas (2)" transform="translate(2363 205)">
      <g id="Grupo_128" data-name="Grupo 128">
        <path id="Trazado_40788" data-name="Trazado 40788" d="M67.328,20.2A9.591,9.591,0,0,1,53.765,6.632L47.133,0,0,47.133l6.632,6.632A9.591,9.591,0,0,1,20.2,67.328l6.632,6.632L73.96,26.827Z" fill="url(#linear-gradient)"/>
      </g>
    </g>
    <g id="Grupo_129" data-name="Grupo 129" transform="translate(2392.639 229.646)">
      <path id="Trazado_40705" data-name="Trazado 40705" d="M5966.916-1317.046l-4.193-4.214a1.146,1.146,0,0,0-.793-.35H5960.2a1.175,1.175,0,0,0-.329-.771l-4.36-4.349a1.507,1.507,0,0,0-.941-.434.458.458,0,0,0-.058,0c-.026,0-.052,0-.078,0h-1.794a.445.445,0,0,0-.057,0,1.516,1.516,0,0,0-.942.439l-4.076,4.094c-.01.01-.021.049-.029.049h3.979l2.918-2.938a.235.235,0,0,1,.332-.009l3.964,3.961-3.964,3.962a.234.234,0,0,1-.332,0l-2.916-2.919h-3.979c.007,0,.017.021.025.031l4.076,4.077a0,0,0,0,0,0,0,1.517,1.517,0,0,0,1.076.445l-.077,0a.453.453,0,0,0-.058,0,1.516,1.516,0,0,0-.942.441l-4.076,4.049c-.01.01-.018,0-.028,0h3.98l2.918-2.891a.233.233,0,0,1,.33.013l3.965,3.972-3.965,3.967a.233.233,0,0,1-.33.016l-2.918-2.9h-3.981a.047.047,0,0,1,.029.018l4.076,4.068v-.031a1.484,1.484,0,0,0,1.076.413h1.715a1.507,1.507,0,0,0,1.078-.418l4.359-4.353a1,1,0,0,0,.329-.784h1.732a1.118,1.118,0,0,0,.793-.323l4.193-4.189A1.522,1.522,0,0,0,5966.916-1317.046Zm-1.021,1.244-3.8,3.8a.234.234,0,0,1-.329,0l-3.8-3.8a.235.235,0,0,1,0-.331l3.8-3.8a.233.233,0,0,1,.329,0l3.8,3.8A.235.235,0,0,1,5965.894-1315.8Z" transform="translate(-5947.534 1327.166)" fill="#fff"/>
    </g>
  </g>
</svg>
