<svg xmlns="http://www.w3.org/2000/svg" xmlns:xlink="http://www.w3.org/1999/xlink" width="193" height="230" viewBox="0 0 193 230">
  <defs>
    <clipPath id="clip-path">
      <rect id="Rectángulo_1112" data-name="Rectángulo 1112" width="193" height="230" transform="translate(5855 1520)" fill="none" stroke="#707070" stroke-width="1"/>
    </clipPath>
    <linearGradient id="linear-gradient" x1="0.5" x2="0.168" y2="1.301" gradientUnits="objectBoundingBox">
      <stop offset="0" stop-color="#0097d9"/>
      <stop offset="1" stop-color="#004c6d"/>
    </linearGradient>
  </defs>
  <g id="Enmascarar_grupo_4" data-name="Enmascarar grupo 4" transform="translate(-5855 -1520)" clip-path="url(#clip-path)">
    <g id="Grupo_15098" data-name="Grupo 15098" transform="translate(3512.765 1323.048)" opacity="0.46">
      <g id="entradas_2_" data-name="entradas (2)" transform="translate(2363 205)">
        <g id="Grupo_128" data-name="Grupo 128">
          <path id="Trazado_40788" data-name="Trazado 40788" d="M194.034,58.2a27.64,27.64,0,0,1-39.089-39.089L135.833,0,0,135.833l19.113,19.113A27.64,27.64,0,0,1,58.2,194.035l19.112,19.112L213.147,77.314Z" fill="url(#linear-gradient)"/>
        </g>
      </g>
      <g id="Grupo_129" data-name="Grupo 129" transform="translate(2448.418 276.028)">
        <path id="Trazado_40705" data-name="Trazado 40705" d="M6003.392-1298l-12.085-12.145a3.3,3.3,0,0,0-2.287-1.009h-4.991a3.389,3.389,0,0,0-.948-2.223l-12.565-12.534a4.347,4.347,0,0,0-2.711-1.251,1.344,1.344,0,0,0-.167,0c-.075,0-.151,0-.226,0h-4.943c-.075,0-.148,0-.227,0a1.263,1.263,0,0,0-.163.012,4.368,4.368,0,0,0-2.715,1.266l-11.747,11.8c-.029.028-.061.142-.083.142H5959l8.41-8.466a.678.678,0,0,1,.958-.026l11.423,11.415L5968.37-1299.6a.676.676,0,0,1-.958-.012l-8.4-8.413h-11.466c.021,0,.048.061.074.09l11.747,11.749a.013.013,0,0,0,0,.01,4.375,4.375,0,0,0,3.1,1.281c-.075,0-.148,0-.222.007a1.333,1.333,0,0,0-.167.01,4.367,4.367,0,0,0-2.715,1.271l-11.747,11.669c-.029.028-.053.012-.081.012h11.469l8.411-8.333a.672.672,0,0,1,.952.037l11.426,11.447-11.426,11.433a.671.671,0,0,1-.952.045l-8.411-8.366h-11.472a.141.141,0,0,1,.083.051l11.747,11.724,0-.09a4.278,4.278,0,0,0,3.1,1.19h4.943a4.345,4.345,0,0,0,3.106-1.2l12.562-12.543a2.878,2.878,0,0,0,.948-2.26h4.991a3.221,3.221,0,0,0,2.287-.931l12.085-12.072A4.387,4.387,0,0,0,6003.392-1298Zm-2.945,3.584-10.949,10.952a.675.675,0,0,1-.949,0l-10.955-10.952a.677.677,0,0,1,0-.954l10.955-10.951a.673.673,0,0,1,.949,0l10.949,10.951A.676.676,0,0,1,6000.447-1294.415Z" transform="translate(-5947.535 1327.166)" fill="#fff"/>
      </g>
    </g>
  </g>
</svg>
